<svg width="11" height="11" viewBox="0 0 11 11" fill="none" xmlns="http://www.w3.org/2000/svg">
<path d="M8.10352 6.0625C8.10352 5.73438 8.20508 5.47266 8.4082 5.27734C8.61523 5.08203 8.85742 4.98438 9.13477 4.98438C9.46289 4.98438 9.71289 5.07812 9.88477 5.26562C10.0566 5.45312 10.1426 5.71875 10.1426 6.0625C10.1426 6.39844 10.043 6.66602 9.84375 6.86523C9.64453 7.06055 9.40039 7.1582 9.11133 7.1582C8.7832 7.1582 8.5332 7.06445 8.36133 6.87695C8.18945 6.68555 8.10352 6.41406 8.10352 6.0625Z" fill="white"/>
<path d="M0.480469 8.31836C0.480469 8.01367 0.574219 7.75391 0.761719 7.53906C0.949219 7.32422 1.1582 7.15625 1.38867 7.03516C1.62305 6.91406 1.74023 6.86328 1.74023 6.88281C1.74023 6.89844 1.67383 6.88086 1.54102 6.83008C1.4082 6.77539 1.28711 6.68945 1.17773 6.57227C1.07227 6.45117 1.01953 6.28906 1.01953 6.08594C1.01953 5.83984 1.22852 5.38867 1.64648 4.73242C1.41602 4.58008 1.20312 4.35547 1.00781 4.05859C0.816406 3.76172 0.720703 3.36133 0.720703 2.85742C0.720703 2.06445 0.986328 1.45703 1.51758 1.03516C2.04883 0.613281 2.74219 0.402344 3.59766 0.402344C4.13281 0.402344 4.60547 0.498047 5.01562 0.689453L7.07812 0.642578V1.59766L6.09375 1.76758C6.10156 1.79883 6.13672 1.89844 6.19922 2.06641C6.26562 2.23438 6.29883 2.45117 6.29883 2.7168C6.29883 3.54883 6.03906 4.16797 5.51953 4.57422C5 4.97656 4.30078 5.17773 3.42188 5.17773C3.26953 5.17773 3.13477 5.16797 3.01758 5.14844C2.90039 5.125 2.83008 5.11328 2.80664 5.11328L2.75977 5.92188H4.53516C5.30469 5.92188 5.89648 6.08203 6.31055 6.40234C6.72852 6.72266 6.9375 7.18164 6.9375 7.7793C6.9375 8.4668 6.6543 9.01758 6.08789 9.43164C5.52539 9.84961 4.6875 10.0586 3.57422 10.0586C2.56641 10.0586 1.79883 9.92578 1.27148 9.66016C0.744141 9.39844 0.480469 8.95117 0.480469 8.31836ZM3.53906 1.63867C3.1875 1.63867 2.92969 1.73242 2.76562 1.91992C2.60156 2.10742 2.51953 2.39258 2.51953 2.77539C2.51953 3.15039 2.59766 3.44531 2.75391 3.66016C2.91016 3.87109 3.15234 3.97656 3.48047 3.97656C3.84766 3.97656 4.10938 3.88086 4.26562 3.68945C4.42188 3.49805 4.5 3.19336 4.5 2.77539C4.5 2.39258 4.42188 2.10742 4.26562 1.91992C4.10938 1.73242 3.86719 1.63867 3.53906 1.63867ZM2.79492 7.24023C2.76367 7.25586 2.70117 7.29297 2.60742 7.35156C2.51758 7.41406 2.42969 7.50195 2.34375 7.61523C2.26172 7.73242 2.2207 7.86719 2.2207 8.01953C2.2207 8.30859 2.33789 8.5 2.57227 8.59375C2.81055 8.69141 3.19336 8.74023 3.7207 8.74023C4.26367 8.74023 4.6543 8.67578 4.89258 8.54688C5.13477 8.41797 5.25586 8.21094 5.25586 7.92578C5.25586 7.66797 5.16211 7.48828 4.97461 7.38672C4.78711 7.28906 4.48047 7.24023 4.05469 7.24023H2.79492Z" fill="white"/>
</svg>
