<svg width="32" height="32" viewBox="0 0 32 32" fill="none" xmlns="http://www.w3.org/2000/svg">
<path d="M22.2091 30.7424C30.3507 27.3147 34.1736 17.9298 30.7388 9.78804C27.3039 1.64629 17.9264 -2.16949 9.78479 1.25824C1.64321 4.68597 -2.17248 14.0709 1.26236 22.2127C3.75585 28.1411 9.56921 32 16.0006 32C18.1348 32 20.2474 31.576 22.2091 30.7424ZM2.20371 16.0471C2.20371 8.42988 8.38355 2.24991 16.0006 2.24991C23.6176 2.24991 29.7974 8.42988 29.7974 16.0471C29.7974 23.6642 23.6176 29.8442 16.0006 29.8442C8.38355 29.8442 2.20371 23.6642 2.20371 16.0471ZM24.2859 18.0591L16.0006 26.3446L7.71526 18.0591L9.23867 16.5357L14.9227 22.227V7.26575H17.0784V22.227L22.7625 16.5429L24.2859 18.0591Z" fill="#FF9533"/>
</svg>
