<svg width="88" height="47" viewBox="0 0 88 47" fill="none" xmlns="http://www.w3.org/2000/svg">
<path d="M3.7949 23.9933C2.56259 25.2666 1.59337 26.7701 0.942553 28.4179C0.291742 30.0655 -0.0278925 31.8252 0.00190743 33.5964C0.0317074 35.3675 0.410358 37.1155 1.11623 38.7404C1.8221 40.3654 2.84137 41.8354 4.11582 43.0666C6.68932 45.5525 10.1456 46.915 13.7244 46.8544C17.3032 46.794 20.7112 45.3152 23.1989 42.7434C23.3723 42.5475 23.5398 42.3464 23.7015 42.1407L23.7437 42.1841L41.0374 24.311C41.278 30.2706 43.8012 35.9173 48.085 40.0834C50.2851 42.2096 52.8812 43.8832 55.7254 45.0088C58.5695 46.1344 61.606 46.6899 64.6612 46.6434C67.7166 46.597 70.7308 45.9496 73.5319 44.7383C76.3332 43.527 78.8664 41.7754 80.9869 39.5835C85.2688 35.1571 87.6101 29.2067 87.496 23.0414C87.3819 16.8761 84.8215 11.0008 80.3782 6.70799C75.9353 2.41562 69.9738 0.0569058 63.8046 0.15064C57.6355 0.244387 51.7639 2.7829 47.4815 7.20787C47.0187 7.71278 46.5786 8.23789 46.1623 8.78181L26.3219 29.2872C25.6546 27.1612 24.4707 25.2336 22.876 23.6765C20.3033 21.1899 16.8473 19.8264 13.2685 19.8861C9.68976 19.9457 6.28125 21.4236 3.7928 23.9947L3.7949 23.9933ZM8.83377 28.8624C9.42607 28.2506 10.1332 27.7613 10.9147 27.4225C11.6962 27.0839 12.5367 26.9023 13.3885 26.8882C14.2401 26.8741 15.0863 27.0279 15.8786 27.3406C16.6709 27.6533 17.3937 28.1191 18.0059 28.7109C19.1037 29.7772 19.7888 31.197 19.94 32.7192C20.0911 34.2415 19.6988 35.7682 18.8321 37.0292L18.629 37.2392L18.6501 37.261C18.4991 37.4758 18.3352 37.6812 18.1595 37.8762C17.5675 38.4882 16.8607 38.978 16.0794 39.317C15.298 39.6562 14.4575 39.8382 13.6059 39.8529C12.7542 39.8674 11.908 39.714 11.1155 39.4017C10.3231 39.0894 9.59995 38.6242 8.98742 38.0326C8.37463 37.4409 7.88454 36.7342 7.54512 35.9531C7.20571 35.172 7.02367 34.3318 7.00934 33.4803C6.99502 32.6288 7.14873 31.7828 7.46167 30.9907C7.77464 30.1986 8.24069 29.476 8.83322 28.8639L8.83377 28.8624ZM52.586 12.3766L52.8256 12.1288C55.8221 9.09746 59.8827 7.35824 64.1264 7.28828C68.3702 7.21846 72.4551 8.82362 75.4952 11.7558C77.0111 13.2199 78.2207 14.9709 79.0553 16.9088C79.89 18.8464 80.333 20.9331 80.3592 23.0495C80.3856 25.1659 79.9944 27.2705 79.2084 29.2433C78.4222 31.2159 77.2566 33.0181 75.7779 34.5469C74.2988 36.0757 72.5356 37.301 70.5889 38.1529C68.6423 39.0047 66.5504 39.4664 64.4327 39.5115C62.3148 39.5567 60.2128 39.1844 58.2464 38.416C56.2801 37.6476 54.4879 36.498 52.9725 35.033C49.9375 32.0947 48.1946 28.0681 48.1223 23.8266C48.05 19.585 49.6539 15.4713 52.586 12.3766Z" fill="#4154FA"/>
</svg>
