<svg width="32" height="32" viewBox="0 0 32 32" fill="none" xmlns="http://www.w3.org/2000/svg">
<path fill-rule="evenodd" clip-rule="evenodd" d="M16 20.5C18.4853 20.5 20.5 18.4853 20.5 16C20.5 13.5147 18.4853 11.5 16 11.5C13.5147 11.5 11.5 13.5147 11.5 16C11.5 18.4853 13.5147 20.5 16 20.5ZM16 22.5C19.5899 22.5 22.5 19.5899 22.5 16C22.5 12.4101 19.5899 9.5 16 9.5C12.4101 9.5 9.5 12.4101 9.5 16C9.5 19.5899 12.4101 22.5 16 22.5Z" fill="#FF9533"/>
<path fill-rule="evenodd" clip-rule="evenodd" d="M17 8H15V10.8146C15.3821 10.7306 15.7791 10.6863 16.1863 10.6863C16.4626 10.6863 16.7344 10.7067 17 10.7461V8ZM21.5581 15C21.6421 15.3821 21.6863 15.7791 21.6863 16.1863C21.6863 16.4628 21.6658 16.7345 21.6265 17H24V15H21.5581ZM17 21.6265C16.7344 21.6659 16.4626 21.6863 16.1863 21.6863C15.7791 21.6863 15.3821 21.642 15 21.558V24H17V21.6265ZM10.7461 17C10.7068 16.7345 10.6863 16.4628 10.6863 16.1863C10.6863 15.7791 10.7305 15.3821 10.8145 15H8V17H10.7461Z" fill="#FF9533"/>
<path fill-rule="evenodd" clip-rule="evenodd" d="M22.364 11.0503L20.9497 9.63599L18.8066 11.7792C19.3325 12.1997 19.7715 12.7242 20.0928 13.3215L22.364 11.0503ZM19.8579 18.4436C19.4863 19.0046 19.0046 19.4863 18.4436 19.8579L20.9497 22.3639L22.364 20.9497L19.8579 18.4436ZM13.3213 20.0928C12.7239 19.7716 12.1995 19.3324 11.7791 18.8065L9.63599 20.9497L11.0503 22.3639L13.3213 20.0928ZM11.5146 12.929C11.8862 12.3679 12.3679 11.8862 12.929 11.5146L11.0503 9.63599L9.63599 11.0503L11.5146 12.929Z" fill="#FF9533"/>
<path d="M1.75 3H7.75V9" stroke="#FF9533" stroke-width="2"/>
<path d="M30.25 29H24.25V23" stroke="#FF9533" stroke-width="2"/>
<path fill-rule="evenodd" clip-rule="evenodd" d="M0 16C0 10.0777 3.21759 4.90699 8 2.14052V4.50938C4.37303 7.03927 2 11.2425 2 16C2 23.732 8.26801 30 16 30V32C7.16344 32 0 24.8366 0 16ZM24 29.8595C28.7824 27.093 32 21.9223 32 16C32 7.16344 24.8366 0 16 0V2C23.732 2 30 8.26801 30 16C30 20.7575 27.627 24.9607 24 27.4906V29.8595Z" fill="#FF9533"/>
</svg>
